<svg id="Layer_1" data-name="Layer 1" xmlns="http://www.w3.org/2000/svg" viewBox="0 0 878.32 1028.64"><defs><style>.cls-1,.cls-3,.cls-4,.cls-6{fill:#fff;}.cls-2{fill:#fffeff;}.cls-2,.cls-3{stroke:#030202;}.cls-2,.cls-3,.cls-4,.cls-5{stroke-miterlimit:10;}.cls-4,.cls-5{stroke:#000;}.cls-5{fill:#f9f9fa;}.cls-6{font-size:30px;font-family:GillSans-Italic, Gill Sans;font-style:italic;letter-spacing:0.03em;}.cls-7{letter-spacing:0.05em;}.cls-8{letter-spacing:0.03em;}.cls-9{letter-spacing:0.01em;}.cls-10{letter-spacing:0.01em;}.cls-11{letter-spacing:0.02em;}.cls-12{letter-spacing:-0.01em;}.cls-13{letter-spacing:-0.02em;}.cls-14{letter-spacing:-0.07em;}.cls-15{letter-spacing:-0.01em;}</style></defs><title>typefacessum</title><polygon class="cls-1" points="68.08 803.04 105.07 803.47 105.07 812.96 61.95 812.96 68.08 803.04"/><polygon class="cls-1" points="261.65 904.35 261.65 927.7 212.31 977.04 200.25 977.04 200.25 937.11 159.34 978.01 147.72 978.01 147.72 901.28 159.1 901.28 159.1 962.39 199.75 921.73 199.75 901.28 211.63 901.28 211.63 962.39 251.3 922.72 251.3 901.28 261.65 904.35"/><polygon class="cls-1" points="612.04 978.12 616.79 966.87 567.35 966.46 619.67 902.19 619.67 890.56 558.7 890.56 558.7 901.95 604.04 901.95 552.61 966.91 552.88 977.62 612.04 978.12"/><polygon class="cls-1" points="34.45 922.28 44.95 933.14 85.85 974.04 97.48 974.04 97.48 897.31 86.1 897.31 86.1 958.42 45.45 917.76 45.45 897.31 33.57 897.31 34.45 922.28"/><polygon class="cls-1" points="302.38 890.56 320.4 890.56 334.62 922.93 348.41 890.56 370.67 890.56 370.67 901.48 355.64 901.48 340.97 935.4 329.59 935.4 313.61 901.59 302.38 901.73 302.38 890.56"/><polygon class="cls-1" points="368.14 980.37 350.12 980.37 335.89 948 322.11 980.37 299.85 980.37 299.85 969.46 314.88 969.46 329.55 935.53 340.93 935.53 356.9 969.35 368.14 969.21 368.14 980.37"/><polygon class="cls-1" points="94.91 803.48 94.91 761.45 73.9 740 47.2 740 47.2 782.9 69.08 803.04 61.59 812.72 36.03 788.59 36.03 727.31 77.84 727.31 106.07 754.88 106.07 803.47 94.91 803.48"/><polygon class="cls-1" points="566.62 803.69 589.38 803.69 610.83 782.68 610.83 754.22 621.78 754.22 621.78 788.37 595.95 814.85 566.4 814.85 566.62 803.69"/><polygon class="cls-1" points="491.47 742.84 468.71 742.84 447.26 763.85 447.26 811.57 434.56 812.23 434.56 759.91 462.14 731.68 491.69 731.68 491.47 742.84"/><polygon class="cls-1" points="349.88 857.12 349.88 764.32 328.87 742.87 302.17 742.87 302.17 784.02 322.3 804.15 314.42 811.6 291 787.96 291 730.17 332.81 730.17 361.05 757.75 361.05 856.54 349.88 857.12"/><polygon class="cls-1" points="166.66 857.75 166.66 764.95 187.67 743.5 214.38 743.5 214.38 784.65 194.24 804.78 202.12 812.23 225.54 788.59 225.54 730.8 183.73 730.8 155.5 758.38 155.5 857.17 166.66 857.75"/><polygon class="cls-1" points="706.56 756.19 706.56 719.64 687.5 702.49 695.72 694.36 718.23 715.74 718.38 756.19 706.56 756.19"/><polygon class="cls-1" points="718.58 755.65 718.58 792.2 737.64 809.35 729.42 817.48 706.91 796.1 706.76 755.65 718.58 755.65"/><polygon class="cls-1" points="876.36 625.22 865.85 614.37 824.95 573.47 813.32 573.47 813.32 650.19 824.7 650.19 824.7 589.09 865.36 629.75 865.36 650.19 877.23 650.19 876.36 625.22"/><polygon class="cls-1" points="617.84 764.62 558.48 764.62 558.48 753.82 582.77 729.52 612.58 729.52 612.58 740.1 587.55 740.1 573.27 753.98 617.84 754.22 617.84 764.62"/><polygon class="cls-1" points="643.17 642.02 643.17 618.67 692.51 569.33 704.57 569.33 704.57 609.26 745.48 568.35 757.11 568.35 757.11 645.08 745.72 645.08 745.72 583.98 705.07 624.63 705.07 645.08 693.19 645.08 693.19 583.98 653.52 623.65 653.52 645.08 643.17 642.02"/><polygon class="cls-1" points="565.72 588.61 565.72 552.06 546.66 534.91 554.88 526.78 577.39 548.15 577.54 588.61 565.72 588.61"/><polygon class="cls-1" points="577.74 588.06 577.74 624.62 596.8 641.76 588.58 649.9 566.07 628.52 565.92 588.06 577.74 588.06"/><polygon class="cls-1" points="431.2 588.74 443.02 588.74 443.02 650.9 431.86 651.34 431.2 588.74"/><polygon class="cls-1" points="431.2 589.3 431.2 552.75 412.15 535.6 420.37 527.47 442.88 548.85 443.02 589.3 431.2 589.3"/><polygon class="cls-1" points="452.25 600.72 471.91 581.6 479.82 588.02 460.62 607.34 499.47 646.19 488.69 649.96 451.59 612.86 442.29 612.86 442.29 600.72 452.25 600.72"/><polygon class="cls-1" points="23.7 578.3 23.7 541.86 3.99 524.6 12.21 516.47 34.72 537.85 34.72 578.3 23.7 578.3"/><polygon class="cls-1" points="849.22 487.48 849.22 441.95 828.21 420.5 801.5 420.5 801.5 461.65 821.64 481.79 813.76 489.23 790.34 465.59 790.34 407.8 832.15 407.8 860.38 435.38 860.38 486.89 849.22 487.48"/><polygon class="cls-1" points="849.22 487.48 849.22 504.69 826.48 527.44 798.84 527.44 798.84 539.46 833.24 539.46 860.82 511.23 860.38 486.35 849.22 487.48"/><polygon class="cls-1" points="716.67 458.46 716.67 416.87 700.33 416.87 700.04 405.2 716.38 405.2 716.67 384.18 740.31 360.54 747.9 368.13 727.46 388.58 727.38 404.99 744.69 405.11 744.69 416.32 726.6 416.43 726.6 463.71 702.74 487.57 695.08 479.91 716.67 458.46"/><polygon class="cls-1" points="629.98 428.93 617.72 423.46 617.81 416.38 591.46 416.67 570.01 437.68 570.01 480.15 618.16 480.15 618.6 491.31 557.32 491.31 557.32 433.74 586.64 403.76 629.4 403.76 629.98 428.93"/><polyline class="cls-1" points="629.98 428.93 588.72 469.97 579.97 462.09 617.72 423.46"/><polygon class="cls-1" points="486.19 364.19 486.19 457 465.17 478.45 438.47 478.45 438.47 437.3 458.61 417.16 450.73 409.72 427.31 433.36 427.31 491.14 469.11 491.14 497.35 463.56 497.35 364.77 486.19 364.19"/><polygon class="cls-1" points="166.95 364.54 166.95 457.34 187.96 478.79 214.67 478.79 214.67 437.64 194.53 417.51 202.41 410.06 225.83 433.7 225.83 491.49 184.02 491.49 155.79 463.91 155.79 365.12 166.95 364.54"/><polygon class="cls-1" points="82.81 485.39 82.81 439.87 61.8 418.42 35.1 418.42 35.1 459.57 55.23 479.7 47.35 487.15 23.93 463.51 23.93 405.72 65.74 405.72 93.97 433.3 93.97 484.81 82.81 485.39"/><polygon class="cls-1" points="82.84 651.32 82.84 605.79 61.83 584.34 35.13 584.34 35.13 625.49 55.26 645.63 47.38 653.07 23.96 629.43 23.96 571.65 65.77 571.65 94.01 599.23 94.01 650.74 82.84 651.32"/><circle class="cls-2" cx="53.04" cy="484.08" r="6.57"/><circle class="cls-3" cx="7.07" cy="519.53" r="6.57"/><circle class="cls-3" cx="161.62" cy="364.68" r="6.57"/><circle class="cls-4" cx="88.07" cy="485.83" r="6.57"/><polygon class="cls-1" points="816.3 742.92 816.3 788.45 837.31 809.9 864.01 809.9 864.01 768.75 843.88 748.61 851.76 741.17 875.18 764.81 875.18 822.59 833.37 822.59 805.13 795.01 805.13 743.5 816.3 742.92"/><circle class="cls-2" cx="847.06" cy="744.23" r="6.57"/><circle class="cls-4" cx="812.04" cy="742.48" r="6.57"/><polygon class="cls-1" points="58.01 32.43 58.01 53.34 67.66 63.2 79.92 63.2 79.92 44.29 70.67 35.04 74.29 31.62 85.05 42.48 85.05 69.03 65.85 69.03 52.88 56.36 52.88 32.7 58.01 32.43"/><circle class="cls-2" cx="72.14" cy="33.03" r="3.02"/><circle class="cls-4" cx="56.05" cy="32.23" r="3.02"/><polygon class="cls-1" points="191.47 579.44 191.47 624.09 211.6 644.23 203.72 651.67 180.3 628.03 180.3 579 191.47 579.44"/><rect class="cls-1" x="686.19" y="738.95" width="52.76" height="11.16"/><circle class="cls-3" cx="818.25" cy="486.16" r="6.57"/><circle class="cls-3" cx="697.41" cy="485.31" r="6.57"/><circle class="cls-3" cx="743.38" cy="411.03" r="6.57"/><circle class="cls-3" cx="745.13" cy="363.32" r="6.57"/><circle class="cls-3" cx="697.41" cy="411.03" r="6.57"/><circle class="cls-3" cx="798" cy="533.44" r="6.57"/><polygon class="cls-1" points="274.23 693.38 299.33 692.8 322.1 671.28 322.1 606.27 297.58 583.07 305.02 573.88 333.26 601.46 333.26 675.88 303.49 703.89 274.31 704.33 274.23 693.38"/><circle class="cls-3" cx="583.32" cy="467.34" r="6.57"/><circle class="cls-3" cx="619.95" cy="485.73" r="6.57"/><polygon class="cls-1" points="166.46 34.76 154.93 34.89 145.55 44.85 145.55 63.42 166.61 63.42 166.8 68.31 139.99 68.31 139.99 43.13 152.82 30.01 166.16 30.01 166.46 34.76"/><circle class="cls-5" cx="165.94" cy="65.87" r="2.87"/><circle class="cls-5" cx="166.8" cy="32.48" r="2.87"/><polygon class="cls-1" points="348.36 420.12 323.82 420.39 303.85 441.59 303.85 481.12 348.69 481.12 349.1 491.52 292.03 491.52 292.03 437.92 319.34 410 347.74 410 348.36 420.12"/><circle class="cls-5" cx="347.26" cy="486.32" r="6.11"/><circle class="cls-5" cx="349.09" cy="415.26" r="6.11"/><circle class="cls-3" cx="493.33" cy="737.37" r="6.57"/><circle class="cls-3" cx="615.76" cy="734.74" r="6.57"/><circle class="cls-3" cx="689.48" cy="696.44" r="6.57"/><circle class="cls-3" cx="740.49" cy="744.44" r="6.57"/><circle class="cls-3" cx="687.48" cy="744.44" r="6.57"/><circle class="cls-3" cx="731.51" cy="812.01" r="6.57"/><circle class="cls-3" cx="100.82" cy="806.43" r="6.57"/><circle class="cls-3" cx="41.28" cy="731.14" r="6.57"/><circle class="cls-3" cx="564.17" cy="809.16" r="6.57"/><circle class="cls-3" cx="440.8" cy="812.45" r="6.57"/><circle class="cls-3" cx="48.28" cy="648.12" r="6.57"/><circle class="cls-3" cx="87.56" cy="647.57" r="6.57"/><polygon class="cls-1" points="181.93 32.26 181.93 14.54 172.35 6.16 176.35 2.2 187.29 12.59 187.29 32.26 181.93 32.26"/><polygon class="cls-1" points="210.68 67.75 210.68 45.62 200.47 35.2 187.49 35.2 187.49 55.2 197.28 64.99 193.44 68.6 182.06 57.11 182.06 29.02 202.38 29.02 216.11 42.43 216.11 67.47 210.68 67.75"/><circle class="cls-3" cx="173.85" cy="3.69" r="3.19"/><circle class="cls-3" cx="193.88" cy="66.2" r="3.19"/><circle class="cls-3" cx="213.91" cy="65.93" r="3.19"/><polygon class="cls-1" points="493.12 964.44 493.12 1000.89 512.84 1018.14 504.62 1026.28 482.11 1004.9 482.11 964.44 493.12 964.44"/><polygon class="cls-1" points="433.98 891.42 433.98 936.95 455 958.4 481.7 958.4 481.7 917.25 461.56 897.12 469.44 889.67 492.86 913.31 492.86 971.1 451.06 971.1 422.82 943.52 422.82 892.01 433.98 891.42"/><circle class="cls-3" cx="468.54" cy="894.62" r="6.57"/><circle class="cls-3" cx="429.26" cy="895.17" r="6.57"/><circle class="cls-3" cx="208.68" cy="648.97" r="6.57"/><circle class="cls-3" cx="185.92" cy="577.61" r="6.57"/><circle class="cls-3" cx="272.19" cy="698.78" r="6.57"/><circle class="cls-3" cx="300.35" cy="577.74" r="6.57"/><circle class="cls-3" cx="414.5" cy="529.58" r="6.57"/><circle class="cls-3" cx="300.1" cy="541.47" r="6.57"/><polygon class="cls-1" points="16.56 85.7 28.3 85.42 38.95 75.36 38.95 44.95 27.48 34.09 30.96 29.79 44.17 42.69 44.17 77.51 30.25 90.61 16.59 90.82 16.56 85.7"/><circle class="cls-3" cx="15.6" cy="88.22" r="3.07"/><circle class="cls-3" cx="28.78" cy="31.6" r="3.07"/><circle class="cls-3" cx="28.66" cy="14.63" r="3.07"/><circle class="cls-3" cx="550.76" cy="530.64" r="6.57"/><circle class="cls-3" cx="594.54" cy="647.96" r="6.57"/><polygon class="cls-1" points="255.12 35.58 255.12 17.25 245.57 8.66 249.69 4.58 260.98 15.3 261.05 35.58 255.12 35.58"/><polygon class="cls-1" points="261.15 35.31 261.15 53.64 270.71 62.24 266.59 66.32 255.3 55.6 255.23 35.31 261.15 35.31"/><circle class="cls-3" cx="247.62" cy="6.52" r="3.29"/><circle class="cls-3" cx="269.57" cy="65.35" r="3.29"/><polygon class="cls-1" points="277.53 35.7 277.53 17.37 267.97 8.77 272.1 4.69 283.38 15.41 283.46 35.7 277.53 35.7"/><polygon class="cls-1" points="283.56 35.42 283.56 53.76 293.11 62.35 288.99 66.43 277.7 55.71 277.63 35.42 283.56 35.42"/><circle class="cls-3" cx="270.03" cy="6.63" r="3.29"/><circle class="cls-3" cx="291.98" cy="65.46" r="3.29"/><circle class="cls-3" cx="647.99" cy="645.85" r="6.57"/><circle class="cls-3" cx="698.77" cy="570.55" r="6.57"/><circle class="cls-3" cx="751.41" cy="568.35" r="6.57"/><circle class="cls-3" cx="818.25" cy="573.47" r="6.57"/><circle class="cls-3" cx="699.1" cy="646.5" r="6.57"/><circle class="cls-3" cx="751.41" cy="645.96" r="6.57"/><circle class="cls-3" cx="819.13" cy="650.19" r="6.57"/><circle class="cls-3" cx="871.25" cy="651.25" r="6.57"/><polygon class="cls-1" points="124.51 55.69 120 51.03 102.46 33.49 97.47 33.49 97.47 66.4 102.36 66.4 102.36 40.19 119.79 57.63 119.79 66.4 124.89 66.4 124.51 55.69"/><circle class="cls-3" cx="99.59" cy="33.49" r="2.82"/><circle class="cls-3" cx="99.96" cy="66.4" r="2.82"/><circle class="cls-3" cx="122.32" cy="66.85" r="2.82"/><circle class="cls-3" cx="477.56" cy="582.59" r="6.57"/><circle class="cls-3" cx="437.26" cy="651.16" r="6.57"/><circle class="cls-3" cx="494.58" cy="650.24" r="6.57"/><circle class="cls-3" cx="186.92" cy="540.33" r="6.57"/><polygon class="cls-1" points="233.34 32.25 233.34 54.58 243.4 64.65 239.47 68.37 227.75 56.55 227.75 32.03 233.34 32.25"/><circle class="cls-3" cx="241.95" cy="67.02" r="3.28"/><circle class="cls-3" cx="230.56" cy="31.34" r="3.28"/><circle class="cls-3" cx="231.06" cy="12.7" r="3.28"/><circle class="cls-3" cx="196.72" cy="413.13" r="6.57"/><circle class="cls-3" cx="355.21" cy="856.98" r="6.57"/><circle class="cls-3" cx="320.12" cy="808.53" r="6.57"/><circle class="cls-3" cx="161.33" cy="857.61" r="6.57"/><circle class="cls-3" cx="196.43" cy="809.16" r="6.57"/><circle class="cls-2" cx="491.51" cy="364.34" r="6.57"/><circle class="cls-2" cx="456.42" cy="412.78" r="6.57"/><circle class="cls-3" cx="256.83" cy="900.52" r="6.57"/><circle class="cls-3" cx="300.3" cy="896.25" r="6.57"/><circle class="cls-3" cx="370.67" cy="896.25" r="6.57"/><circle class="cls-3" cx="206.05" cy="975.81" r="6.57"/><circle class="cls-3" cx="153.41" cy="978.01" r="6.57"/><circle class="cls-3" cx="205.72" cy="899.86" r="6.57"/><circle class="cls-3" cx="153.41" cy="900.41" r="6.57"/><circle class="cls-3" cx="552.61" cy="971.55" r="6.57"/><circle class="cls-3" cx="620.9" cy="896.25" r="6.57"/><circle class="cls-3" cx="558.7" cy="896.37" r="6.57"/><circle class="cls-3" cx="616.08" cy="973.1" r="6.57"/><circle class="cls-3" cx="92.55" cy="974.04" r="6.57"/><circle class="cls-3" cx="91.68" cy="897.31" r="6.57"/><circle class="cls-3" cx="39.55" cy="896.25" r="6.57"/><circle class="cls-3" cx="370.22" cy="974.68" r="6.57"/><circle class="cls-3" cx="299.85" cy="974.68" r="6.57"/><circle class="cls-3" cx="506.84" cy="1021.58" r="6.57"/><text class="cls-6" transform="translate(21.85 135.95) scale(0.66 1)">Jun<tspan class="cls-7" x="38.06" y="0">c</tspan><tspan class="cls-8" x="51.1" y="0">hill type</tspan><tspan class="cls-9" x="146.06" y="0">f</tspan><tspan class="cls-8" x="154.63" y="0">ace </tspan><tspan class="cls-10" x="205.33" y="0">w</tspan><tspan class="cls-8" x="224.08" y="0">as inspi</tspan><tspan class="cls-11" x="315" y="0">r</tspan><tspan x="324.99" y="0">ed </tspan><tspan class="cls-9" x="363.25" y="0">b</tspan><tspan x="377.77" y="0">y the South </tspan><tspan class="cls-12" x="524.23" y="0">K</tspan><tspan x="540.96" y="0">o</tspan><tspan class="cls-11" x="555.31" y="0">r</tspan><tspan x="565.31" y="0">ea</tspan><tspan class="cls-13" x="594.32" y="0">’</tspan><tspan class="cls-8" x="599.68" y="0">s </tspan><tspan x="0" y="36">underg</tspan><tspan class="cls-10" x="82.96" y="36">r</tspan><tspan x="92.65" y="36">ound sub</tspan><tspan class="cls-10" x="202.64" y="36">w</tspan><tspan class="cls-8" x="221.4" y="36">ay map in Seoul</tspan><tspan class="cls-14" x="415.98" y="36">.</tspan><tspan x="0" y="72">Used the similar color coding of the Seoul sub</tspan><tspan class="cls-10" x="554.9" y="72">w</tspan><tspan x="573.66" y="72">ay </tspan><tspan x="0" y="108">map to sh</tspan><tspan class="cls-10" x="122.33" y="108">o</tspan><tspan class="cls-8" x="136.07" y="108">w the circut of the t</tspan><tspan class="cls-10" x="377" y="108">r</tspan><tspan x="386.69" y="108">ain within the type</tspan><tspan class="cls-9" x="612.06" y="108">f</tspan><tspan class="cls-8" x="620.64" y="108">ace</tspan><tspan x="0" y="144">to </tspan><tspan class="cls-11" x="32.91" y="144">r</tspan><tspan class="cls-9" x="42.9" y="144">e</tspan><tspan x="56.49" y="144">veal the shape of the lette</tspan><tspan class="cls-15" x="374.81" y="144">r</tspan><tspan class="cls-14" x="383.9" y="144">.</tspan></text></svg>