<svg id="Layer_1" data-name="Layer 1" xmlns="http://www.w3.org/2000/svg" xmlns:xlink="http://www.w3.org/1999/xlink" viewBox="0 0 577.41 806.5"><defs><style>.cls-1{fill:url(#linear-gradient);}.cls-2{fill:url(#linear-gradient-2);}.cls-3{fill:url(#linear-gradient-3);}.cls-4{fill:url(#linear-gradient-4);}.cls-5{fill:url(#linear-gradient-5);}.cls-6{fill:url(#linear-gradient-6);}.cls-7{fill:url(#linear-gradient-7);}.cls-8{fill:url(#linear-gradient-8);}.cls-9{fill:url(#linear-gradient-9);}.cls-10{fill:url(#linear-gradient-10);}.cls-11{fill:url(#linear-gradient-11);}.cls-12{fill:url(#linear-gradient-12);}.cls-13{fill:url(#linear-gradient-13);}.cls-14{fill:url(#linear-gradient-14);}.cls-15{fill:url(#linear-gradient-15);}.cls-16{fill:url(#linear-gradient-16);}.cls-17{fill:url(#linear-gradient-17);}.cls-18{fill:url(#linear-gradient-18);}.cls-19{fill:url(#linear-gradient-19);}.cls-20{fill:url(#linear-gradient-20);}.cls-21{fill:url(#linear-gradient-21);}.cls-22{fill:url(#linear-gradient-22);}.cls-23{fill:url(#linear-gradient-23);}.cls-24{fill:url(#linear-gradient-24);}.cls-25{fill:url(#linear-gradient-25);}.cls-26{fill:url(#linear-gradient-26);}.cls-27{fill:url(#linear-gradient-27);}.cls-28{fill:url(#linear-gradient-28);}.cls-29{fill:url(#linear-gradient-29);}.cls-30{fill:url(#linear-gradient-30);}.cls-31{fill:url(#linear-gradient-31);}.cls-32{fill:#fffeff;}.cls-32,.cls-33{stroke:#030202;}.cls-32,.cls-33,.cls-34,.cls-40{stroke-miterlimit:10;}.cls-33,.cls-34{fill:#fff;}.cls-34,.cls-40{stroke:#000;}.cls-35{fill:url(#linear-gradient-32);}.cls-36{fill:url(#linear-gradient-33);}.cls-37{fill:url(#linear-gradient-34);}.cls-38{fill:url(#linear-gradient-35);}.cls-39{fill:url(#linear-gradient-36);}.cls-40{fill:#f9f9fa;}.cls-41{fill:url(#linear-gradient-37);}.cls-42{fill:url(#linear-gradient-38);}</style><linearGradient id="linear-gradient" x1="515.56" y1="801" x2="558.68" y2="801" gradientUnits="userSpaceOnUse"><stop offset="0" stop-color="#fff"/><stop offset="1"/></linearGradient><linearGradient id="linear-gradient-2" x1="1.38" y1="469.64" x2="115.31" y2="469.64" xlink:href="#linear-gradient"/><linearGradient id="linear-gradient-3" x1="431.42" y1="685.98" x2="498.48" y2="685.98" xlink:href="#linear-gradient"/><linearGradient id="linear-gradient-4" x1="53.16" y1="312.99" x2="117.07" y2="312.99" xlink:href="#linear-gradient"/><linearGradient id="linear-gradient-5" x1="113.01" y1="369.29" x2="181.31" y2="369.29" xlink:href="#linear-gradient"/><linearGradient id="linear-gradient-6" x1="110.49" y1="413.25" x2="178.78" y2="413.25" xlink:href="#linear-gradient"/><linearGradient id="linear-gradient-7" x1="489.64" y1="763.01" x2="559.68" y2="763.01" xlink:href="#linear-gradient"/><linearGradient id="linear-gradient-8" x1="447.94" y1="554.86" x2="503.32" y2="554.86" xlink:href="#linear-gradient"/><linearGradient id="linear-gradient-9" x1="320.1" y1="501.49" x2="400.65" y2="501.49" xlink:href="#linear-gradient"/><linearGradient id="linear-gradient-10" x1="279.3" y1="494.05" x2="349.34" y2="494.05" xlink:href="#linear-gradient"/><linearGradient id="linear-gradient-11" x1="311.17" y1="703.54" x2="389.33" y2="703.54" xlink:href="#linear-gradient"/><linearGradient id="linear-gradient-12" x1="392.98" y1="560.54" x2="423.85" y2="560.54" xlink:href="#linear-gradient"/><linearGradient id="linear-gradient-13" x1="412.24" y1="621.83" x2="443.12" y2="621.83" xlink:href="#linear-gradient"/><linearGradient id="linear-gradient-14" x1="257.23" y1="596.44" x2="321.14" y2="596.44" xlink:href="#linear-gradient"/><linearGradient id="linear-gradient-15" x1="440.02" y1="517.39" x2="499.38" y2="517.39" xlink:href="#linear-gradient"/><linearGradient id="linear-gradient-16" x1="325.94" y1="395.11" x2="439.87" y2="395.11" xlink:href="#linear-gradient"/><linearGradient id="linear-gradient-17" x1="237.53" y1="339.47" x2="268.4" y2="339.47" xlink:href="#linear-gradient"/><linearGradient id="linear-gradient-18" x1="256.79" y1="400.76" x2="287.67" y2="400.76" xlink:href="#linear-gradient"/><linearGradient id="linear-gradient-19" x1="181.13" y1="205.72" x2="192.95" y2="205.72" xlink:href="#linear-gradient"/><linearGradient id="linear-gradient-20" x1="162.08" y1="144.07" x2="192.95" y2="144.07" xlink:href="#linear-gradient"/><linearGradient id="linear-gradient-21" x1="192.22" y1="201.46" x2="249.4" y2="201.46" xlink:href="#linear-gradient"/><linearGradient id="linear-gradient-22" x1="178.18" y1="457.3" x2="208.91" y2="457.3" xlink:href="#linear-gradient"/><linearGradient id="linear-gradient-23" x1="325.2" y1="222.74" x2="395.24" y2="222.74" xlink:href="#linear-gradient"/><linearGradient id="linear-gradient-24" x1="333.69" y1="287.13" x2="395.67" y2="287.13" xlink:href="#linear-gradient"/><linearGradient id="linear-gradient-25" x1="283.4" y1="369.13" x2="336.23" y2="369.13" xlink:href="#linear-gradient"/><linearGradient id="linear-gradient-26" x1="429.73" y1="329.61" x2="517.28" y2="329.61" xlink:href="#linear-gradient"/><linearGradient id="linear-gradient-27" x1="451.07" y1="340.94" x2="497.58" y2="340.94" xlink:href="#linear-gradient"/><linearGradient id="linear-gradient-28" x1="116.35" y1="109.28" x2="243.3" y2="109.28" xlink:href="#linear-gradient"/><linearGradient id="linear-gradient-29" x1="75.86" y1="141.29" x2="145.9" y2="141.29" xlink:href="#linear-gradient"/><linearGradient id="linear-gradient-30" x1="52.91" y1="40.71" x2="122.95" y2="40.71" xlink:href="#linear-gradient"/><linearGradient id="linear-gradient-31" x1="198.16" y1="522.27" x2="268.2" y2="522.27" xlink:href="#linear-gradient"/><linearGradient id="linear-gradient-32" x1="495.99" y1="477.17" x2="577.41" y2="477.17" xlink:href="#linear-gradient"/><linearGradient id="linear-gradient-33" x1="184.07" y1="270.25" x2="215.37" y2="270.25" xlink:href="#linear-gradient"/><linearGradient id="linear-gradient-34" x1="391.66" y1="579.8" x2="444.42" y2="579.8" xlink:href="#linear-gradient"/><linearGradient id="linear-gradient-35" x1="183.27" y1="369.71" x2="242.3" y2="369.71" xlink:href="#linear-gradient"/><linearGradient id="linear-gradient-36" x1="242.63" y1="274.3" x2="303.91" y2="274.3" xlink:href="#linear-gradient"/><linearGradient id="linear-gradient-37" x1="276.81" y1="734.86" x2="307.54" y2="734.86" xlink:href="#linear-gradient"/><linearGradient id="linear-gradient-38" x1="217.52" y1="669.89" x2="287.57" y2="669.89" xlink:href="#linear-gradient"/></defs><title>typefacesmap</title><polygon class="cls-1" points="521.69 796.04 558.68 796.47 558.68 805.96 515.57 805.96 521.69 796.04"/><polygon class="cls-2" points="115.31 434.34 115.31 457.69 65.97 507.03 53.91 507.03 53.91 467.1 13.01 508.01 1.38 508.01 1.38 431.28 12.76 431.28 12.76 492.38 53.41 451.73 53.41 431.28 65.29 431.28 65.29 492.38 104.96 452.71 104.96 431.28 115.31 434.34"/><polygon class="cls-3" points="490.85 729.76 495.6 718.51 446.17 718.1 498.48 653.84 498.48 642.21 437.51 642.21 437.51 653.59 482.86 653.59 431.42 718.55 431.69 729.27 490.85 729.76"/><polygon class="cls-4" points="116.2 326.38 105.69 315.53 64.79 274.63 53.16 274.63 53.16 351.35 64.54 351.35 64.54 290.25 105.2 330.91 105.2 351.35 117.07 351.35 116.2 326.38"/><polygon class="cls-5" points="113.02 346.87 131.03 346.87 145.26 379.23 159.05 346.87 181.31 346.87 181.31 357.78 166.28 357.78 151.61 391.71 140.23 391.71 124.25 357.89 113.02 358.03 113.02 346.87"/><polygon class="cls-6" points="178.78 435.68 160.76 435.68 146.53 403.31 132.74 435.68 110.49 435.68 110.49 424.76 125.52 424.76 140.19 390.83 151.57 390.83 167.54 424.65 178.78 424.51 178.78 435.68"/><polygon class="cls-7" points="548.52 796.48 548.52 754.45 527.51 733 500.81 733 500.81 775.9 522.69 796.04 515.2 805.72 489.64 781.59 489.64 720.3 531.45 720.3 559.68 747.88 559.68 796.47 548.52 796.48"/><polygon class="cls-8" points="448.16 574.01 470.92 574.01 492.37 553 492.37 524.54 503.32 524.54 503.32 558.69 477.49 585.17 447.94 585.17 448.16 574.01"/><polygon class="cls-9" points="389.49 529.84 389.49 507.08 368.48 485.63 320.76 485.63 320.1 472.93 372.42 472.93 400.65 500.51 400.65 530.06 389.49 529.84"/><polygon class="cls-10" points="290.46 430.58 290.46 523.38 311.47 544.83 338.18 544.83 338.18 503.68 318.04 483.55 325.92 476.1 349.34 499.74 349.34 557.53 307.53 557.53 279.3 529.95 279.3 431.16 290.46 430.58"/><polygon class="cls-11" points="311.17 641.58 376.8 707.2 377.1 737.23 358.22 756.11 329.13 727.01 329.13 698.53 318.29 698.84 318.44 732.12 359.31 772.98 388.87 743.42 389.33 703.95 319.48 634.1 311.17 641.58"/><polygon class="cls-12" points="412.03 591.46 412.03 554.9 392.98 537.75 401.2 529.62 423.71 551 423.85 591.46 412.03 591.46"/><polygon class="cls-13" points="424.06 590.91 424.06 627.46 443.12 644.61 434.89 652.74 412.38 631.37 412.24 590.91 424.06 590.91"/><polygon class="cls-14" points="320.27 609.83 309.76 598.98 268.86 558.07 257.23 558.07 257.23 634.8 268.61 634.8 268.61 573.7 309.27 614.35 309.27 634.8 321.14 634.8 320.27 609.83"/><polygon class="cls-15" points="499.38 534.93 440.02 534.93 440.02 524.14 464.32 499.84 494.13 499.84 494.13 510.42 469.09 510.42 454.81 524.29 499.38 524.54 499.38 534.93"/><polygon class="cls-16" points="439.87 359.81 439.87 383.16 390.53 432.5 378.47 432.5 378.47 392.57 337.56 433.47 325.94 433.47 325.94 356.74 337.32 356.74 337.32 417.85 377.98 377.19 377.98 356.74 389.85 356.74 389.85 417.85 429.52 378.18 429.52 356.74 439.87 359.81"/><polygon class="cls-17" points="256.58 370.39 256.58 333.83 237.53 316.69 245.75 308.55 268.26 329.93 268.4 370.39 256.58 370.39"/><polygon class="cls-18" points="268.61 369.84 268.61 406.4 287.67 423.54 279.44 431.68 256.94 410.3 256.79 369.84 268.61 369.84"/><polygon class="cls-19" points="181.13 174.42 192.95 174.42 192.95 236.58 181.79 237.02 181.13 174.42"/><polygon class="cls-20" points="181.13 174.98 181.13 138.43 162.08 121.28 170.3 113.15 192.81 134.53 192.95 174.98 181.13 174.98"/><polygon class="cls-21" points="202.18 186.4 221.84 167.28 229.75 173.7 210.55 193.02 249.4 231.87 238.62 235.64 201.52 198.54 192.22 198.54 192.22 186.4 202.18 186.4"/><polygon class="cls-22" points="197.9 488.22 197.9 451.77 178.18 434.51 186.4 426.38 208.91 447.76 208.91 488.22 197.9 488.22"/><polygon class="cls-23" points="384.08 261.7 384.08 216.17 363.06 194.72 336.36 194.72 336.36 235.87 356.5 256.01 348.62 263.45 325.2 239.81 325.2 182.03 367 182.03 395.24 209.61 395.24 261.12 384.08 261.7"/><polygon class="cls-24" points="384.08 261.7 384.08 278.92 361.33 301.67 333.69 301.67 333.69 313.69 368.09 313.69 395.67 285.45 395.24 260.58 384.08 261.7"/><polygon class="cls-25" points="305 403.54 305 361.95 288.65 361.95 288.36 350.27 304.71 350.27 305 329.26 328.64 305.62 336.23 313.21 315.78 333.66 315.71 350.07 333.01 350.18 333.01 361.4 314.92 361.51 314.92 408.79 291.06 432.65 283.4 424.99 305 403.54"/><polygon class="cls-26" points="492.11 365.95 497.58 353.69 504.66 353.77 504.37 327.42 483.36 305.97 440.89 305.97 440.89 354.13 429.73 354.56 429.73 293.28 487.3 293.28 517.28 322.61 517.28 365.36 492.11 365.95"/><polyline class="cls-27" points="492.11 365.95 451.07 324.68 458.95 315.93 497.58 353.69"/><polygon class="cls-28" points="116.35 85.42 209.16 85.42 230.6 106.43 230.6 133.14 189.46 133.14 169.32 113 161.88 120.88 185.52 144.3 243.3 144.3 243.3 102.49 215.72 74.26 116.93 74.26 116.35 85.42"/><polygon class="cls-29" points="87.02 77.81 87.02 170.62 108.03 192.07 134.74 192.07 134.74 150.92 114.6 130.78 122.48 123.34 145.9 146.98 145.9 204.77 104.09 204.77 75.86 177.19 75.86 78.4 87.02 77.81"/><polygon class="cls-30" points="111.79 79.67 111.79 34.15 90.78 12.7 64.07 12.7 64.07 53.84 84.21 73.98 76.33 81.42 52.91 57.78 52.91 0 94.72 0 122.95 27.58 122.95 79.09 111.79 79.67"/><polygon class="cls-31" points="257.04 561.23 257.04 515.7 236.02 494.25 209.32 494.25 209.32 535.4 229.46 555.54 221.58 562.98 198.16 539.34 198.16 481.56 239.96 481.56 268.2 509.14 268.2 560.65 257.04 561.23"/><circle class="cls-32" cx="82.02" cy="78.36" r="6.57"/><circle class="cls-33" cx="181.26" cy="429.44" r="6.57"/><circle class="cls-33" cx="81.69" cy="77.96" r="6.57"/><circle class="cls-34" cx="117.04" cy="80.11" r="6.57"/><polygon class="cls-35" points="497.74 501.03 543.26 501.03 564.71 480.01 564.71 453.31 523.56 453.31 503.43 473.45 495.99 465.57 519.62 442.15 577.41 442.15 577.41 483.95 549.83 512.19 498.32 512.19 497.74 501.03"/><circle class="cls-32" cx="499.05" cy="470.26" r="6.57"/><circle class="cls-34" cx="497.3" cy="505.28" r="6.57"/><polygon class="cls-36" points="204.21 306.14 204.21 261.49 184.07 241.35 191.95 233.91 215.37 257.55 215.37 306.58 204.21 306.14"/><rect class="cls-37" x="391.66" y="574.21" width="52.76" height="11.16"/><circle class="cls-33" cx="353.1" cy="260.39" r="6.57"/><circle class="cls-33" cx="285.74" cy="430.38" r="6.57"/><circle class="cls-33" cx="331.7" cy="356.11" r="6.57"/><circle class="cls-33" cx="333.45" cy="308.39" r="6.57"/><circle class="cls-33" cx="285.74" cy="356.11" r="6.57"/><circle class="cls-33" cx="332.86" cy="307.67" r="6.57"/><polygon class="cls-38" points="183.27 423.99 208.37 423.41 231.13 401.88 231.13 336.88 206.62 313.68 214.06 304.48 242.3 332.06 242.3 406.48 212.53 434.5 183.34 434.94 183.27 423.99"/><circle class="cls-33" cx="453.7" cy="319.29" r="6.57"/><circle class="cls-33" cx="435.31" cy="355.91" r="6.57"/><polygon class="cls-39" points="243.42 307.2 269.77 306.91 291.22 284.15 291.22 241.69 243.06 241.69 242.63 230.52 303.91 230.52 303.91 288.09 274.58 318.07 244.09 318.07 243.42 307.2"/><circle class="cls-40" cx="244.6" cy="236.1" r="6.57"/><circle class="cls-40" cx="242.63" cy="312.42" r="6.57"/><circle class="cls-33" cx="394.96" cy="531.7" r="6.57"/><circle class="cls-33" cx="497.3" cy="505.06" r="6.57"/><circle class="cls-33" cx="394.96" cy="531.7" r="6.57"/><circle class="cls-33" cx="445.96" cy="579.7" r="6.57"/><circle class="cls-33" cx="392.96" cy="579.7" r="6.57"/><circle class="cls-33" cx="436.99" cy="647.27" r="6.57"/><circle class="cls-33" cx="554.43" cy="799.43" r="6.57"/><circle class="cls-33" cx="494.9" cy="724.13" r="6.57"/><circle class="cls-33" cx="445.71" cy="579.48" r="6.57"/><circle class="cls-33" cx="319.88" cy="479.17" r="6.57"/><circle class="cls-33" cx="222.48" cy="558.03" r="6.57"/><circle class="cls-33" cx="261.76" cy="557.49" r="6.57"/><polygon class="cls-41" points="287.83 703.95 287.83 740.39 307.54 757.65 299.32 765.78 276.81 744.4 276.81 703.95 287.83 703.95"/><polygon class="cls-42" points="228.69 630.93 228.69 676.46 249.7 697.91 276.4 697.91 276.4 656.76 256.27 636.62 264.15 629.18 287.57 652.82 287.57 710.6 245.76 710.6 217.52 683.02 217.52 631.51 228.69 630.93"/><circle class="cls-33" cx="263.25" cy="634.13" r="6.57"/><circle class="cls-33" cx="223.97" cy="634.67" r="6.57"/><circle class="cls-33" cx="186.99" cy="236.61" r="6.57"/><circle class="cls-33" cx="209.75" cy="307.97" r="6.57"/><circle class="cls-33" cx="181.23" cy="429.39" r="6.57"/><circle class="cls-33" cx="209.39" cy="308.35" r="6.57"/><circle class="cls-33" cx="164.42" cy="115.26" r="6.57"/><circle class="cls-33" cx="241.63" cy="312.42" r="6.57"/><circle class="cls-33" cx="285.4" cy="429.74" r="6.57"/><circle class="cls-33" cx="435.05" cy="355.98" r="6.57"/><circle class="cls-33" cx="384.27" cy="431.27" r="6.57"/><circle class="cls-33" cx="331.63" cy="433.47" r="6.57"/><circle class="cls-33" cx="262.16" cy="558.07" r="6.57"/><circle class="cls-33" cx="383.94" cy="355.32" r="6.57"/><circle class="cls-33" cx="331.63" cy="355.87" r="6.57"/><circle class="cls-33" cx="263.03" cy="634.8" r="6.57"/><circle class="cls-33" cx="315.16" cy="636.86" r="6.57"/><circle class="cls-33" cx="227.49" cy="168.27" r="6.57"/><circle class="cls-33" cx="187.19" cy="236.84" r="6.57"/><circle class="cls-33" cx="244.51" cy="235.92" r="6.57"/><circle class="cls-33" cx="116.79" cy="126.41" r="6.57"/><circle class="cls-33" cx="285.13" cy="430.72" r="6.57"/><circle class="cls-33" cx="320.23" cy="479.17" r="6.57"/><circle class="cls-33" cx="315.04" cy="636.91" r="6.57"/><circle class="cls-33" cx="324.48" cy="696.99" r="6.57"/><circle class="cls-32" cx="116.49" cy="80.1" r="6.57"/><circle class="cls-32" cx="164.94" cy="115.19" r="6.57"/><circle class="cls-33" cx="110.49" cy="430.51" r="6.57"/><circle class="cls-33" cx="110.94" cy="352.56" r="6.57"/><circle class="cls-33" cx="181.31" cy="352.56" r="6.57"/><circle class="cls-33" cx="59.71" cy="505.81" r="6.57"/><circle class="cls-33" cx="7.07" cy="508.01" r="6.57"/><circle class="cls-33" cx="59.38" cy="429.86" r="6.57"/><circle class="cls-33" cx="7.07" cy="430.4" r="6.57"/><circle class="cls-33" cx="431.42" cy="723.19" r="6.57"/><circle class="cls-33" cx="499.71" cy="647.9" r="6.57"/><circle class="cls-33" cx="437.51" cy="648.01" r="6.57"/><circle class="cls-33" cx="494.9" cy="724.74" r="6.57"/><circle class="cls-33" cx="58.09" cy="274.63" r="6.57"/><circle class="cls-33" cx="58.96" cy="351.35" r="6.57"/><circle class="cls-33" cx="111.09" cy="352.41" r="6.57"/><circle class="cls-33" cx="180.86" cy="428.98" r="6.57"/><circle class="cls-33" cx="110.49" cy="430.98" r="6.57"/><circle class="cls-33" cx="302.1" cy="760.78" r="6.57"/></svg>