<svg id="Layer_1" data-name="Layer 1" xmlns="http://www.w3.org/2000/svg" viewBox="0 0 884.63 676.63"><defs><style>.cls-1{fill:#fffeff;stroke:#030202;stroke-miterlimit:10;}</style></defs><title>typefaces</title><polygon points="70.11 449.02 107.1 449.46 107.1 458.94 63.98 458.94 70.11 449.02"/><polygon points="263.67 550.33 263.67 573.68 214.33 623.02 202.27 623.02 202.27 583.09 161.37 624 149.74 624 149.74 547.27 161.12 547.27 161.12 608.37 201.78 567.72 201.78 547.27 213.65 547.27 213.65 608.37 253.32 568.7 253.32 547.27 263.67 550.33"/><polygon points="614.06 624.1 618.81 612.85 569.38 612.44 621.69 548.18 621.69 536.55 560.72 536.55 560.72 547.93 606.07 547.93 554.63 612.89 554.9 623.61 614.06 624.1"/><polygon points="36.47 568.27 46.97 579.12 87.88 620.02 99.51 620.02 99.51 543.3 88.12 543.3 88.12 604.4 47.47 563.75 47.47 543.3 35.59 543.3 36.47 568.27"/><polygon points="304.4 536.55 322.42 536.55 336.64 568.91 350.44 536.55 372.69 536.55 372.69 547.46 357.66 547.46 342.99 581.39 331.61 581.39 315.64 547.57 304.4 547.71 304.4 536.55"/><polygon points="370.16 626.36 352.14 626.36 337.92 593.99 324.13 626.36 301.87 626.36 301.87 615.44 316.9 615.44 331.57 581.51 342.95 581.51 358.93 615.33 370.16 615.19 370.16 626.36"/><polygon points="96.93 449.46 96.93 407.44 75.92 385.99 49.22 385.99 49.22 428.89 71.11 449.02 63.61 458.71 38.05 434.58 38.05 373.29 79.86 373.29 108.1 400.87 108.1 449.46 96.93 449.46"/><polygon points="568.64 449.68 591.4 449.68 612.86 428.66 612.86 400.21 623.8 400.21 623.8 434.36 597.97 460.84 568.42 460.84 568.64 449.68"/><polygon points="493.49 388.83 470.73 388.83 449.28 409.84 449.28 457.56 436.58 458.21 436.58 405.9 464.16 377.66 493.71 377.66 493.49 388.83"/><polygon points="351.91 503.11 351.91 410.3 330.89 388.85 304.19 388.85 304.19 430 324.33 450.14 316.45 457.58 293.03 433.94 293.03 376.16 334.83 376.16 363.07 403.74 363.07 502.53 351.91 503.11"/><polygon points="168.68 503.74 168.68 410.93 189.69 389.48 216.4 389.48 216.4 430.63 196.26 450.77 204.14 458.21 227.56 434.57 227.56 376.79 185.75 376.79 157.52 404.37 157.52 503.16 168.68 503.74"/><polygon points="708.58 402.18 708.58 365.63 689.52 348.48 697.75 340.35 720.25 361.72 720.4 402.18 708.58 402.18"/><polygon points="720.61 401.63 720.61 438.19 739.66 455.33 731.44 463.47 708.93 442.09 708.78 401.63 720.61 401.63"/><polygon points="878.38 271.21 867.87 260.35 826.97 219.45 815.34 219.45 815.34 296.18 826.72 296.18 826.72 235.07 867.38 275.73 867.38 296.18 879.26 296.18 878.38 271.21"/><polygon points="619.86 410.6 560.5 410.6 560.5 399.81 584.8 375.51 614.61 375.51 614.61 386.09 589.57 386.09 575.29 399.96 619.86 400.21 619.86 410.6"/><polygon points="645.19 288 645.19 264.65 694.53 215.31 706.6 215.31 706.6 255.24 747.5 214.34 759.13 214.34 759.13 291.07 747.75 291.07 747.75 229.96 707.09 270.62 707.09 291.07 695.21 291.07 695.21 229.96 655.54 269.63 655.54 291.07 645.19 288"/><polygon points="567.74 234.6 567.74 198.04 548.68 180.9 556.91 172.76 579.41 194.14 579.56 234.6 567.74 234.6"/><polygon points="579.76 234.05 579.76 270.6 598.82 287.75 590.6 295.88 568.09 274.51 567.95 234.05 579.76 234.05"/><polygon points="433.23 234.73 445.05 234.73 445.05 296.89 433.88 297.33 433.23 234.73"/><polygon points="433.23 235.29 433.23 198.73 414.17 181.59 422.39 173.45 444.9 194.83 445.05 235.29 433.23 235.29"/><polygon points="454.27 246.7 473.93 227.58 481.85 234.01 462.64 253.32 501.49 292.18 490.72 295.95 453.62 258.85 444.31 258.85 444.31 246.7 454.27 246.7"/><polygon points="25.72 224.29 25.72 187.84 6.01 170.59 14.23 162.45 36.74 183.83 36.74 224.29 25.72 224.29"/><polygon points="851.24 133.46 851.24 87.94 830.23 66.48 803.53 66.48 803.53 107.64 823.66 127.77 815.78 135.21 792.36 111.58 792.36 53.79 834.17 53.79 862.41 81.37 862.41 132.88 851.24 133.46"/><polygon points="851.24 133.46 851.24 150.68 828.5 173.43 800.86 173.43 800.86 185.45 835.26 185.45 862.84 157.21 862.41 132.34 851.24 133.46"/><polygon points="718.7 104.44 718.7 62.85 702.35 62.85 702.06 51.18 718.41 51.18 718.7 30.17 742.34 6.53 749.92 14.12 729.48 34.56 729.41 50.98 746.71 51.09 746.71 62.31 728.62 62.42 728.62 109.7 704.76 133.55 697.1 125.89 718.7 104.44"/><polygon points="632.01 74.91 619.75 69.44 619.83 62.36 593.48 62.66 572.03 83.67 572.03 126.13 620.19 126.13 620.62 137.29 559.34 137.29 559.34 79.73 588.67 49.74 631.42 49.74 632.01 74.91"/><polyline points="632.01 74.91 590.74 115.95 581.99 108.07 619.75 69.44"/><polygon points="488.21 10.18 488.21 102.98 467.2 124.43 440.49 124.43 440.49 83.28 460.63 63.15 452.75 55.7 429.33 79.34 429.33 137.13 471.14 137.13 499.37 109.55 499.37 10.76 488.21 10.18"/><polygon points="168.97 10.52 168.97 103.33 189.99 124.78 216.69 124.78 216.69 83.63 196.55 63.49 204.43 56.05 227.85 79.69 227.85 137.47 186.05 137.47 157.81 109.9 157.81 11.11 168.97 10.52"/><polygon points="84.83 131.38 84.83 85.85 63.82 64.4 37.12 64.4 37.12 105.55 57.26 125.69 49.38 133.13 25.95 109.49 25.95 51.71 67.76 51.71 96 79.29 96 130.8 84.83 131.38"/><polygon points="84.86 297.31 84.86 251.78 63.85 230.33 37.15 230.33 37.15 271.48 57.29 291.61 49.41 299.06 25.99 275.42 25.99 217.63 67.79 217.63 96.03 245.21 96.03 296.72 84.86 297.31"/><circle class="cls-1" cx="54.81" cy="130.81" r="9.31"/><circle class="cls-1" cx="9.81" cy="165.81" r="9.31"/><circle class="cls-1" cx="52.81" cy="296.82" r="9.31"/><circle class="cls-1" cx="44.81" cy="377.82" r="9.31"/><circle class="cls-1" cx="98.81" cy="451.82" r="9.31"/><circle class="cls-1" cx="41.81" cy="542.82" r="9.31"/><circle class="cls-1" cx="94.81" cy="542.82" r="9.31"/><circle class="cls-1" cx="155.81" cy="542.82" r="9.31"/><circle class="cls-1" cx="206.81" cy="542.82" r="9.31"/><circle class="cls-1" cx="257.81" cy="542.82" r="9.31"/><circle class="cls-1" cx="299.82" cy="541.82" r="9.31"/><circle class="cls-1" cx="372.82" cy="542.82" r="9.31"/><circle class="cls-1" cx="372.82" cy="621.82" r="9.31"/><circle class="cls-1" cx="301.82" cy="621.82" r="9.31"/><circle class="cls-1" cx="162.81" cy="495.82" r="9.31"/><circle class="cls-1" cx="196.81" cy="453.82" r="9.31"/><circle class="cls-1" cx="317.82" cy="453.82" r="9.31"/><circle class="cls-1" cx="443.82" cy="453.82" r="9.31"/><circle class="cls-1" cx="495.82" cy="384.82" r="9.31"/><circle class="cls-1" cx="616.82" cy="382.82" r="9.31"/><circle class="cls-1" cx="697.82" cy="348.82" r="9.31"/><circle class="cls-1" cx="732.82" cy="454.82" r="9.31"/><circle class="cls-1" cx="570.82" cy="454.82" r="9.31"/><circle class="cls-1" cx="356.82" cy="494.82" r="9.31"/><circle class="cls-1" cx="90.81" cy="296.82" r="9.31"/><circle class="cls-1" cx="89.81" cy="130.81" r="9.31"/><circle class="cls-1" cx="162.81" cy="9.81" r="9.31"/><circle class="cls-1" cx="201.81" cy="59.81" r="9.31"/><polygon points="818.32 388.9 818.32 434.43 839.33 455.88 866.04 455.88 866.04 414.73 845.9 394.6 853.78 387.15 877.2 410.79 877.2 468.58 835.39 468.58 807.16 441 807.16 389.49 818.32 388.9"/><polygon points="193.49 225.42 193.49 270.08 213.63 290.21 205.75 297.65 182.32 274.02 182.32 224.99 193.49 225.42"/><rect x="688.21" y="384.94" width="52.76" height="11.16"/><polygon points="276.25 339.37 301.35 338.79 324.12 317.26 324.12 252.26 299.6 229.06 307.05 219.86 335.28 247.44 335.28 321.86 305.51 349.88 276.33 350.31 276.25 339.37"/><polygon points="356.62 59.39 330.27 59.68 308.82 82.45 308.82 124.91 356.98 124.91 357.41 136.07 296.13 136.07 296.13 78.51 325.46 48.52 355.95 48.52 356.62 59.39"/><polygon points="495.15 610.43 495.15 646.87 514.86 664.13 506.64 672.26 484.13 650.88 484.13 610.43 495.15 610.43"/><polygon points="436 537.41 436 582.94 457.02 604.39 483.72 604.39 483.72 563.24 463.58 543.1 471.46 535.66 494.88 559.3 494.88 617.08 453.08 617.08 424.84 589.5 424.84 537.99 436 537.41"/><circle class="cls-1" cx="353.82" cy="53.81" r="9.31"/><circle class="cls-1" cx="353.82" cy="128.81" r="9.31"/><circle class="cls-1" cx="454.82" cy="62.81" r="9.31"/><circle class="cls-1" cx="493.82" cy="9.81" r="9.31"/><circle class="cls-1" cx="588.82" cy="109.81" r="9.31"/><circle class="cls-1" cx="701.82" cy="126.81" r="9.31"/><circle class="cls-1" cx="744.82" cy="12.81" r="9.31"/><circle class="cls-1" cx="744.82" cy="55.81" r="9.31"/><circle class="cls-1" cx="701.82" cy="55.81" r="9.31"/><circle class="cls-1" cx="817.82" cy="127.81" r="9.31"/><circle class="cls-1" cx="803.82" cy="178.81" r="9.31"/><circle class="cls-1" cx="619.82" cy="130.81" r="9.31"/><circle class="cls-1" cx="209.81" cy="295.82" r="9.31"/><circle class="cls-1" cx="187.81" cy="224.81" r="9.31"/><circle class="cls-1" cx="187.81" cy="183.81" r="9.31"/><circle class="cls-1" cx="418.82" cy="179.81" r="9.31"/><circle class="cls-1" cx="556.82" cy="179.81" r="9.31"/><circle class="cls-1" cx="591.82" cy="290.82" r="9.31"/><circle class="cls-1" cx="649.82" cy="290.82" r="9.31"/><circle class="cls-1" cx="701.82" cy="290.82" r="9.31"/><circle class="cls-1" cx="752.82" cy="290.82" r="9.31"/><circle class="cls-1" cx="820.82" cy="290.82" r="9.31"/><circle class="cls-1" cx="874.82" cy="290.82" r="9.31"/><circle class="cls-1" cx="305.82" cy="225.81" r="9.31"/><circle class="cls-1" cx="439.82" cy="292.82" r="9.31"/><circle class="cls-1" cx="492.82" cy="292.82" r="9.31"/><circle class="cls-1" cx="475.82" cy="231.81" r="9.31"/><circle class="cls-1" cx="278.82" cy="344.82" r="9.31"/><circle class="cls-1" cx="688.82" cy="389.82" r="9.31"/><circle class="cls-1" cx="739.82" cy="389.82" r="9.31"/><circle class="cls-1" cx="811.82" cy="389.82" r="9.31"/><path class="cls-1" d="M1175.64,616.65A9.32,9.32,0,1,1,1185,626,9.31,9.31,0,0,1,1175.64,616.65Z" transform="translate(-333.14 -226.83)"/><circle class="cls-1" cx="430.82" cy="542.82" r="9.31"/><circle class="cls-1" cx="470.82" cy="542.82" r="9.31"/><circle class="cls-1" cx="507.82" cy="666.82" r="9.31"/><circle class="cls-1" cx="557.82" cy="542.82" r="9.31"/><circle class="cls-1" cx="616.82" cy="618.82" r="9.31"/></svg>