<svg id="Layer_1" data-name="Layer 1" xmlns="http://www.w3.org/2000/svg" viewBox="0 0 883.63 675.63"><defs><style>.cls-1{fill:#fffeff;}</style></defs><title>typefaces1</title><polygon points="69.61 448.52 106.6 448.96 106.6 458.44 63.48 458.44 69.61 448.52"/><polygon points="263.17 549.83 263.17 573.18 213.83 622.52 201.77 622.52 201.77 582.59 160.87 623.5 149.24 623.5 149.24 546.77 160.62 546.77 160.62 607.87 201.28 567.22 201.28 546.77 213.15 546.77 213.15 607.87 252.82 568.2 252.82 546.77 263.17 549.83"/><polygon points="613.56 623.6 618.31 612.35 568.88 611.94 621.19 547.68 621.19 536.05 560.22 536.05 560.22 547.43 605.57 547.43 554.13 612.39 554.4 623.11 613.56 623.6"/><polygon points="35.97 567.77 46.47 578.62 87.38 619.52 99.01 619.52 99.01 542.8 87.62 542.8 87.62 603.9 46.97 563.25 46.97 542.8 35.09 542.8 35.97 567.77"/><polygon points="303.9 536.05 321.92 536.05 336.14 568.41 349.94 536.05 372.19 536.05 372.19 546.96 357.16 546.96 342.49 580.89 331.11 580.89 315.14 547.07 303.9 547.21 303.9 536.05"/><polygon points="369.66 625.86 351.64 625.86 337.42 593.49 323.63 625.86 301.37 625.86 301.37 614.94 316.4 614.94 331.07 581.01 342.45 581.01 358.43 614.83 369.66 614.69 369.66 625.86"/><polygon points="96.43 448.96 96.43 406.94 75.42 385.49 48.72 385.49 48.72 428.39 70.61 448.52 63.11 458.21 37.55 434.08 37.55 372.79 79.36 372.79 107.6 400.37 107.6 448.96 96.43 448.96"/><polygon points="568.14 449.18 590.9 449.18 612.36 428.16 612.36 399.71 623.3 399.71 623.3 433.86 597.47 460.34 567.92 460.34 568.14 449.18"/><polygon points="492.99 388.33 470.23 388.33 448.78 409.34 448.78 457.06 436.08 457.71 436.08 405.4 463.66 377.16 493.21 377.16 492.99 388.33"/><polygon points="351.41 502.61 351.41 409.8 330.39 388.35 303.69 388.35 303.69 429.5 323.83 449.64 315.95 457.08 292.53 433.44 292.53 375.66 334.33 375.66 362.57 403.24 362.57 502.03 351.41 502.61"/><polygon points="168.18 503.24 168.18 410.43 189.19 388.98 215.9 388.98 215.9 430.13 195.76 450.27 203.64 457.71 227.06 434.07 227.06 376.29 185.25 376.29 157.02 403.87 157.02 502.66 168.18 503.24"/><polygon points="708.08 401.68 708.08 365.13 689.02 347.98 697.25 339.85 719.75 361.22 719.9 401.68 708.08 401.68"/><polygon points="720.11 401.13 720.11 437.69 739.16 454.83 730.94 462.97 708.43 441.59 708.28 401.13 720.11 401.13"/><polygon points="877.88 270.71 867.37 259.85 826.47 218.95 814.84 218.95 814.84 295.68 826.22 295.68 826.22 234.57 866.88 275.23 866.88 295.68 878.76 295.68 877.88 270.71"/><polygon points="619.36 410.1 560 410.1 560 399.31 584.3 375.01 614.11 375.01 614.11 385.59 589.07 385.59 574.79 399.46 619.36 399.71 619.36 410.1"/><polygon points="644.69 287.5 644.69 264.15 694.03 214.81 706.1 214.81 706.1 254.74 747 213.84 758.63 213.84 758.63 290.57 747.25 290.57 747.25 229.46 706.59 270.12 706.59 290.57 694.71 290.57 694.71 229.46 655.04 269.13 655.04 290.57 644.69 287.5"/><polygon points="567.24 234.1 567.24 197.54 548.18 180.4 556.41 172.26 578.91 193.64 579.06 234.1 567.24 234.1"/><polygon points="579.26 233.55 579.26 270.1 598.32 287.25 590.1 295.38 567.59 274.01 567.45 233.55 579.26 233.55"/><polygon points="432.73 234.23 444.55 234.23 444.55 296.39 433.38 296.83 432.73 234.23"/><polygon points="432.73 234.79 432.73 198.23 413.67 181.09 421.89 172.95 444.4 194.33 444.55 234.79 432.73 234.79"/><polygon points="453.77 246.2 473.43 227.08 481.35 233.51 462.14 252.82 500.99 291.68 490.22 295.45 453.12 258.35 443.81 258.35 443.81 246.2 453.77 246.2"/><polygon points="25.22 223.79 25.22 187.34 5.51 170.09 13.73 161.95 36.24 183.33 36.24 223.79 25.22 223.79"/><polygon points="850.74 132.96 850.74 87.44 829.73 65.98 803.03 65.98 803.03 107.14 823.16 127.27 815.28 134.71 791.86 111.08 791.86 53.29 833.67 53.29 861.91 80.87 861.91 132.38 850.74 132.96"/><polygon points="850.74 132.96 850.74 150.18 828 172.93 800.36 172.93 800.36 184.95 834.76 184.95 862.34 156.71 861.91 131.84 850.74 132.96"/><polygon points="718.2 103.94 718.2 62.35 701.85 62.35 701.56 50.68 717.91 50.68 718.2 29.67 741.84 6.03 749.42 13.62 728.98 34.06 728.91 50.48 746.21 50.59 746.21 61.81 728.12 61.92 728.12 109.2 704.26 133.05 696.6 125.39 718.2 103.94"/><polygon points="631.51 74.41 619.25 68.94 619.33 61.86 592.98 62.16 571.53 83.17 571.53 125.63 619.69 125.63 620.12 136.79 558.84 136.79 558.84 79.23 588.17 49.24 630.92 49.24 631.51 74.41"/><polyline points="631.51 74.41 590.24 115.45 581.49 107.57 619.25 68.94"/><polygon points="487.71 9.68 487.71 102.48 466.7 123.93 439.99 123.93 439.99 82.78 460.13 62.65 452.25 55.2 428.83 78.84 428.83 136.63 470.64 136.63 498.87 109.05 498.87 10.26 487.71 9.68"/><polygon points="168.47 10.02 168.47 102.83 189.49 124.28 216.19 124.28 216.19 83.13 196.05 62.99 203.93 55.55 227.35 79.19 227.35 136.97 185.55 136.97 157.31 109.4 157.31 10.61 168.47 10.02"/><polygon points="84.33 130.88 84.33 85.35 63.32 63.9 36.62 63.9 36.62 105.05 56.76 125.19 48.88 132.63 25.45 108.99 25.45 51.21 67.26 51.21 95.5 78.79 95.5 130.3 84.33 130.88"/><polygon points="84.36 296.81 84.36 251.28 63.35 229.83 36.65 229.83 36.65 270.98 56.79 291.11 48.91 298.56 25.49 274.92 25.49 217.13 67.29 217.13 95.53 244.71 95.53 296.22 84.36 296.81"/><circle class="cls-1" cx="54.31" cy="130.31" r="9.31"/><circle class="cls-1" cx="9.31" cy="165.31" r="9.31"/><circle class="cls-1" cx="52.31" cy="296.32" r="9.31"/><circle class="cls-1" cx="44.31" cy="377.32" r="9.31"/><circle class="cls-1" cx="98.31" cy="451.32" r="9.31"/><circle class="cls-1" cx="41.31" cy="542.32" r="9.31"/><circle class="cls-1" cx="94.31" cy="542.32" r="9.31"/><circle class="cls-1" cx="155.31" cy="542.32" r="9.31"/><circle class="cls-1" cx="206.31" cy="542.32" r="9.31"/><circle class="cls-1" cx="257.31" cy="542.32" r="9.31"/><circle class="cls-1" cx="299.32" cy="541.32" r="9.31"/><circle class="cls-1" cx="372.32" cy="542.32" r="9.31"/><circle class="cls-1" cx="372.32" cy="621.32" r="9.31"/><circle class="cls-1" cx="301.32" cy="621.32" r="9.31"/><circle class="cls-1" cx="162.31" cy="495.32" r="9.31"/><circle class="cls-1" cx="196.31" cy="453.32" r="9.31"/><circle class="cls-1" cx="317.32" cy="453.32" r="9.31"/><circle class="cls-1" cx="443.32" cy="453.32" r="9.31"/><circle class="cls-1" cx="495.32" cy="384.32" r="9.31"/><circle class="cls-1" cx="616.32" cy="382.32" r="9.31"/><circle class="cls-1" cx="697.32" cy="348.32" r="9.31"/><circle class="cls-1" cx="730.32" cy="454.32" r="9.31"/><circle class="cls-1" cx="570.32" cy="454.32" r="9.31"/><circle class="cls-1" cx="356.32" cy="494.32" r="9.31"/><circle class="cls-1" cx="90.31" cy="296.32" r="9.31"/><circle class="cls-1" cx="89.31" cy="130.31" r="9.31"/><circle class="cls-1" cx="162.31" cy="9.31" r="9.31"/><circle class="cls-1" cx="201.31" cy="59.31" r="9.31"/><polygon points="817.82 388.4 817.82 433.93 838.83 455.38 865.54 455.38 865.54 414.23 845.4 394.1 853.28 386.65 876.7 410.29 876.7 468.08 834.89 468.08 806.66 440.5 806.66 388.99 817.82 388.4"/><polygon points="192.99 224.92 192.99 269.58 213.13 289.71 205.25 297.15 181.82 273.52 181.82 224.49 192.99 224.92"/><rect x="687.71" y="384.44" width="52.76" height="11.16"/><polygon points="275.75 338.87 300.85 338.29 323.62 316.76 323.62 251.76 299.1 228.56 306.55 219.36 334.78 246.94 334.78 321.36 305.01 349.38 275.83 349.81 275.75 338.87"/><polygon points="356.12 58.89 329.77 59.18 308.32 81.95 308.32 124.41 356.48 124.41 356.91 135.57 295.63 135.57 295.63 78.01 324.96 48.02 355.45 48.02 356.12 58.89"/><polygon points="494.65 609.93 494.65 646.37 514.36 663.63 506.14 671.76 483.63 650.38 483.63 609.93 494.65 609.93"/><polygon points="435.5 536.91 435.5 582.44 456.52 603.89 483.22 603.89 483.22 562.74 463.08 542.6 470.96 535.16 494.38 558.8 494.38 616.58 452.58 616.58 424.34 589 424.34 537.49 435.5 536.91"/><circle class="cls-1" cx="353.32" cy="53.31" r="9.31"/><circle class="cls-1" cx="353.32" cy="128.31" r="9.31"/><circle class="cls-1" cx="454.32" cy="62.31" r="9.31"/><circle class="cls-1" cx="493.32" cy="9.31" r="9.31"/><circle class="cls-1" cx="588.32" cy="109.31" r="9.31"/><circle class="cls-1" cx="701.32" cy="126.31" r="9.31"/><circle class="cls-1" cx="744.32" cy="12.31" r="9.31"/><circle class="cls-1" cx="744.32" cy="55.31" r="9.31"/><circle class="cls-1" cx="701.32" cy="55.31" r="9.31"/><circle class="cls-1" cx="817.32" cy="127.31" r="9.31"/><circle class="cls-1" cx="803.32" cy="178.31" r="9.31"/><circle class="cls-1" cx="619.32" cy="130.31" r="9.31"/><circle class="cls-1" cx="209.31" cy="295.32" r="9.31"/><circle class="cls-1" cx="187.31" cy="224.31" r="9.31"/><circle class="cls-1" cx="187.31" cy="183.31" r="9.31"/><circle class="cls-1" cx="418.32" cy="179.31" r="9.31"/><circle class="cls-1" cx="556.32" cy="179.31" r="9.31"/><circle class="cls-1" cx="591.32" cy="290.32" r="9.31"/><circle class="cls-1" cx="649.32" cy="290.32" r="9.31"/><circle class="cls-1" cx="701.32" cy="290.32" r="9.31"/><circle class="cls-1" cx="752.32" cy="290.32" r="9.31"/><circle class="cls-1" cx="820.32" cy="290.32" r="9.31"/><circle class="cls-1" cx="874.32" cy="290.32" r="9.31"/><circle class="cls-1" cx="305.32" cy="225.31" r="9.31"/><circle class="cls-1" cx="439.32" cy="292.32" r="9.31"/><circle class="cls-1" cx="492.32" cy="292.32" r="9.31"/><circle class="cls-1" cx="475.32" cy="231.31" r="9.31"/><circle class="cls-1" cx="278.32" cy="344.32" r="9.31"/><circle class="cls-1" cx="688.32" cy="389.32" r="9.31"/><circle class="cls-1" cx="739.32" cy="389.32" r="9.31"/><circle class="cls-1" cx="811.32" cy="389.32" r="9.31"/><path class="cls-1" d="M1175.64,616.65A9.32,9.32,0,1,1,1185,626,9.31,9.31,0,0,1,1175.64,616.65Z" transform="translate(-333.64 -227.33)"/><circle class="cls-1" cx="430.32" cy="542.32" r="9.31"/><circle class="cls-1" cx="470.32" cy="542.32" r="9.31"/><circle class="cls-1" cx="507.32" cy="666.32" r="9.31"/><circle class="cls-1" cx="557.32" cy="542.32" r="9.31"/><circle class="cls-1" cx="616.32" cy="618.32" r="9.31"/></svg>